<svg xmlns="http://www.w3.org/2000/svg" viewBox="0 0 599.12 151.93"><defs><style>.cls-1{fill:#161412;}.cls-2{fill:none;}</style></defs><title>Maltego-Logo-Horizontal-Black</title><g id="Layer_2" data-name="Layer 2"><g id="Layer_1-2" data-name="Layer 1"><path class="cls-1" d="M204.56,105.71l-.08-37.33L186,99.27h-4.67l-18.5-30.41v36.85h-10V49.39h8.6l22.37,37.33,22-37.33h8.61l.08,56.32Z"/><path class="cls-1" d="M269,92.67H240.86l-5.55,13H224.53l25.34-56.32h10.3l25.42,56.32H274.65Zm-3.46-8.2L254.94,59.85,244.4,84.47Z"/><path class="cls-1" d="M296.33,49.39h10.46V96.86h29.44v8.85h-39.9Z"/><path class="cls-1" d="M355.65,58.24H337V49.39h47.78v8.85H366.11v47.47H355.65Z"/><path class="cls-1" d="M439.31,96.94v8.77H397.08V49.39h41.11v8.77H407.54V72.8h27.19v8.61H407.54V96.94Z"/><path class="cls-1" d="M490.64,76.91h9.89V99.35a31.24,31.24,0,0,1-10.13,5.31,39,39,0,0,1-11.91,1.85A32.12,32.12,0,0,1,463,102.77,27.74,27.74,0,0,1,452.1,92.43a28.51,28.51,0,0,1-3.94-14.88,28.53,28.53,0,0,1,3.94-14.88A27.72,27.72,0,0,1,463,52.33a32.51,32.51,0,0,1,15.64-3.74,34.25,34.25,0,0,1,12.87,2.33,25.32,25.32,0,0,1,9.74,6.84l-6.6,6.44a21.17,21.17,0,0,0-15.52-6.44,22,22,0,0,0-10.58,2.49,18.2,18.2,0,0,0-7.24,7,20.1,20.1,0,0,0-2.62,10.3,19.8,19.8,0,0,0,2.62,10.14,18.73,18.73,0,0,0,7.24,7.08,21.26,21.26,0,0,0,10.49,2.57,22.59,22.59,0,0,0,11.59-2.9Z"/><path class="cls-1" d="M526.35,102.77a27.67,27.67,0,0,1-10.86-10.38,29.92,29.92,0,0,1,0-29.68,27.67,27.67,0,0,1,10.86-10.38,34.11,34.11,0,0,1,31.06,0,27.78,27.78,0,0,1,10.86,10.34,28.53,28.53,0,0,1,3.94,14.88,28.51,28.51,0,0,1-3.94,14.88,27.78,27.78,0,0,1-10.86,10.34,34.11,34.11,0,0,1-31.06,0Zm25.67-8a18.39,18.39,0,0,0,7.08-7.08,21.45,21.45,0,0,0,0-20.36A18.29,18.29,0,0,0,552,60.3a21.51,21.51,0,0,0-20.28,0,18.2,18.2,0,0,0-7.07,7.07,21.37,21.37,0,0,0,0,20.36,18.29,18.29,0,0,0,7.07,7.08,21.59,21.59,0,0,0,20.28,0Z"/><rect class="cls-2" width="599.12" height="151.93"/><circle class="cls-1" cx="76.28" cy="75.82" r="8.43"/><path class="cls-1" d="M118.31,76.56c-.46,11.85-4.85,21.82-13,29.63a40.83,40.83,0,0,1-29,11.65c-.6,0-1.19,0-1.79,0-20.31-.75-37-16.31-39.74-37a39.37,39.37,0,0,1,6.05-27c8-12.46,19.73-19.15,34.94-19.89V26.51a11.85,11.85,0,0,0-1.68-.1c-5,0-13.19,2-18.64,4.58A49.29,49.29,0,0,0,32.9,52a48.79,48.79,0,0,0-5.73,30.31,49.56,49.56,0,0,0,70.94,38.12c19.59-9.65,28-28.91,27.69-43.91Z"/><path class="cls-1" d="M53.61,51.5l2.64,2.41a29.73,29.73,0,1,1-.88,43.18l-4,4.37-1.09,1.2c6.35,6.71,16,10.71,26,10.71a37.41,37.41,0,0,0,.12-74.82,36.26,36.26,0,0,0-25.72,10.3Z"/><path class="cls-1" d="M94.45,75.27H102c.17-7.62-4.32-17.79-14.74-22.65a25.42,25.42,0,0,0-10.85-2.41A25.74,25.74,0,0,0,53.89,88.52c5,8.93,14.42,13,21.06,13l.84,0V94.11C64.29,93.17,58.18,84,58.27,75.76A18,18,0,0,1,74.05,58a19.25,19.25,0,0,1,2.38-.15,17.24,17.24,0,0,1,9.83,3A18.2,18.2,0,0,1,94.45,75.27Z"/></g></g></svg>